HIERARCHY
ROOT Hips
{
	OFFSET -0.179506 -22.333345 2.821913
	CHANNELS 6 Xposition Yposition Zposition Zrotation Yrotation Xrotation 
	JOINT LeftUpLeg
	{
		OFFSET 6.951974 -9.140623 -0.681533
		CHANNELS 3 Zrotation Yrotation Xrotation
		JOINT LeftLeg
		{
			OFFSET 3.427654 -37.519855 -0.449580
			CHANNELS 3 Zrotation Yrotation Xrotation
			JOINT LeftFoot
			{
				OFFSET -1.359570 -39.796059 -4.369333
				CHANNELS 3 Zrotation Yrotation Xrotation
				JOINT LeftToe
				{
					OFFSET 2.635814 -5.579078 11.928840
					CHANNELS 3 Zrotation Yrotation Xrotation
					End Site
					{
						OFFSET 0.000000 0.000000 0.000000
					}
				}
			}
		}
	}
	JOINT RightUpLeg
	{
		OFFSET -6.767048 -9.052170 -0.431982
		CHANNELS 3 Zrotation Yrotation Xrotation
		JOINT RightLeg
		{
			OFFSET -3.829005 -38.256897 -0.885003
			CHANNELS 3 Zrotation Yrotation Xrotation
			JOINT RightFoot
			{
				OFFSET 1.577377 -39.841461 -4.231180
				CHANNELS 3 Zrotation Yrotation Xrotation
				JOINT RightToe
				{
					OFFSET -2.537174 -4.814398 12.334795
					CHANNELS 3 Zrotation Yrotation Xrotation
					End Site
					{
						OFFSET 0.000000 0.000000 0.000000
					}
				}
			}
		}
	}
	JOINT Spine
	{
		OFFSET -0.253288 10.896323 -2.669631
		CHANNELS 3 Zrotation Yrotation Xrotation
		JOINT Spine1
		{
			OFFSET 0.548704 13.518043 0.109247
			CHANNELS 3 Zrotation Yrotation Xrotation
			JOINT Spine2
			{
				OFFSET 0.145701 5.292222 2.542457
				CHANNELS 3 Zrotation Yrotation Xrotation
				JOINT Neck
				{
					OFFSET -0.277840 21.387037 -4.285703
					CHANNELS 3 Zrotation Yrotation Xrotation
					JOINT Head
					{
						OFFSET 0.515184 6.496960 5.134897
						CHANNELS 3 Zrotation Yrotation Xrotation
						End Site
						{
							OFFSET 0.000000 0.000000 0.000000
						}
					}
				}
				JOINT LeftShoulder
				{
					OFFSET 7.884473 12.174932 -3.408961
					CHANNELS 3 Zrotation Yrotation Xrotation
					JOINT LeftArm
					{
						OFFSET 9.097692 3.046888 -0.886815
						CHANNELS 3 Zrotation Yrotation Xrotation
						JOINT LeftForeArm
						{
							OFFSET 25.961220 -1.277207 -2.745643
							CHANNELS 3 Zrotation Yrotation Xrotation
							JOINT LeftHand
							{
								OFFSET 24.923361 0.898606 -0.117091
								CHANNELS 3 Zrotation Yrotation Xrotation
								End Site
								{
									OFFSET 0.000000 0.000000 0.000000
								}
							}
						}
					}
				}
				JOINT RightShoulder
				{
					OFFSET -8.175920 11.883285 -3.861528
					CHANNELS 3 Zrotation Yrotation Xrotation
					JOINT RightArm
					{
						OFFSET -9.601238 3.255117 -0.914307
						CHANNELS 3 Zrotation Yrotation Xrotation
						JOINT RightForeArm
						{
							OFFSET -25.374195 -1.332924 -2.140099
							CHANNELS 3 Zrotation Yrotation Xrotation
							JOINT RightHand
							{
								OFFSET -25.529810 0.777228 -0.555919
								CHANNELS 3 Zrotation Yrotation Xrotation
								End Site
								{
									OFFSET 0.000000 0.000000 0.000000
								}
							}
						}
					}
				}
			}
		}
	}
}
MOTION
Frames: 12
Frame Time: 0.033333
333.302765 -326.720154 86.185593 -135.245316 -0.538751 86.402920 0.774508 -5.587851 -28.774397 -5.833723 8.388606 29.742970 2.542082 7.337302 -13.629473 nan nan nan -0.160866 -5.162529 22.105872 0.060675 3.734218 23.549181 2.170429 -3.182684 -15.171544 nan nan nan -0.868402 11.978007 17.537057 1.908202 -2.593101 4.120415 0.836574 1.431879 1.116530 -0.546091 2.986501 -11.535353 -0.689784 -5.315983 -0.498654 -27.150435 2.483793 3.170109 -59.095027 5.063031 8.658073 8.421413 -17.044165 14.937613 -6.092897 -11.458593 -7.108669 27.689942 4.755274 0.804272 51.234526 7.792521 12.240062 -19.436686 39.875307 -5.077029 4.104692 15.071546 -14.486355 
332.203094 -325.770813 86.317558 -134.970475 -0.535002 86.508203 0.659172 -5.663218 -28.481255 -6.143329 7.934398 30.817128 3.031617 7.430000 -14.336999 nan nan nan -0.019930 -4.914197 20.763856 0.383353 3.558003 26.948191 1.913745 -3.548028 -16.233824 nan nan nan -0.997570 11.740377 17.388439 1.941189 -2.530076 3.619577 0.808205 1.366457 1.468930 -0.413304 2.999222 -11.459093 -0.713536 -5.389928 -0.057922 -26.896866 2.174485 3.338523 -59.379964 4.644058 8.596780 8.311160 -16.650370 14.954688 -5.940135 -11.133760 -7.340203 27.639626 4.751483 1.006182 51.747454 7.391711 12.170194 -19.663754 39.401568 -4.991098 4.427341 14.837302 -14.667082 
331.075287 -324.719757 86.453087 -134.671798 -0.439058 86.291385 0.389271 -5.682977 -27.501169 -6.242950 7.399702 31.401530 3.553980 7.700620 -15.401291 nan nan nan 0.214039 -4.646501 19.663304 0.675237 3.010065 30.318323 1.688113 -3.947691 -17.140015 nan nan nan -1.024320 11.453957 17.364639 2.035279 -2.420868 3.497321 0.789954 1.311399 1.701527 -0.290264 3.058094 -11.317819 -0.793661 -5.552676 0.072637 -26.491066 1.899484 3.578508 -59.726035 4.111525 8.600094 8.157677 -16.521638 15.009501 -7.708374 -11.764491 -8.678879 27.416668 4.626492 1.001754 52.493536 7.009568 12.197103 -19.836780 38.818584 -4.907554 5.063722 14.977690 -14.900402 
329.845703 -323.659180 86.641884 -133.954802 -0.580118 85.779461 -0.445205 -5.974624 -25.740851 -6.351227 6.654138 31.159049 3.897309 8.419625 -16.390409 nan nan nan 0.736193 -4.120746 19.316618 0.832823 3.205954 32.694780 1.496588 -4.117059 -18.283722 nan nan nan -1.125074 11.040098 17.578765 2.123051 -2.554898 3.636611 0.758086 1.213841 1.710819 -0.296950 2.970470 -11.138967 -0.806039 -5.701175 -0.005687 -26.040554 1.374226 3.712921 -60.320080 3.970061 8.654869 8.451125 -16.495810 15.073749 -7.745466 -11.280126 -8.965798 27.052619 4.610299 0.724136 53.391143 6.157064 12.239889 -19.931952 38.462054 -4.753552 5.341166 14.770780 -15.101901 
328.848297 -322.687347 86.817856 -133.944015 -0.471369 86.050693 -0.760040 -5.707844 -24.654165 -6.369158 5.968593 30.502281 4.617468 9.066150 -17.122975 nan nan nan 0.947291 -3.723358 17.250674 1.298671 2.988492 36.198723 1.431108 -4.156906 -18.923207 nan nan nan -1.355482 10.605799 17.182040 2.209459 -2.286265 3.502520 0.781530 1.084998 1.887053 -0.128250 3.041923 -11.137981 -1.000389 -5.489408 0.087456 -25.849570 1.360699 3.628390 -60.813851 3.600254 8.840748 8.911567 -16.418121 14.996210 -5.987350 -10.645956 -8.776738 26.970919 4.478318 0.695943 53.799321 5.984961 12.420952 -19.408849 37.859078 -4.255854 5.157799 14.699298 -15.257427 
327.744843 -321.992889 86.900253 -133.849370 -1.172801 86.969267 -1.536735 -6.704748 -24.436660 -6.663374 6.172962 29.723374 5.556998 10.231355 -17.129848 nan nan nan 1.775977 -1.820081 14.692526 1.940469 4.397929 40.762726 1.092335 -3.828223 -19.774563 nan nan nan -2.174307 10.151225 15.968452 2.289542 -2.083452 3.617049 0.566064 0.898610 2.046930 0.039853 3.414939 -10.983390 -1.287469 -5.503149 -0.052986 -25.644935 1.515512 3.490677 -61.156466 3.016376 9.594453 9.048320 -16.400311 14.947298 -7.679901 -11.030602 -9.751741 26.874110 4.025169 0.521942 54.263691 6.038522 13.207543 -19.262431 36.875352 -3.922434 5.794131 15.150768 -16.075348 
326.648743 -321.116028 87.129585 -133.459103 -1.242646 87.041343 -2.092773 -6.606860 -23.393172 -6.819104 5.282478 29.414603 5.747580 10.623501 -17.230157 nan nan nan 1.931061 -1.085859 12.814886 2.268103 4.144812 43.671482 1.050768 -3.732261 -20.203916 nan nan nan -2.236931 9.466686 16.008255 2.342350 -2.000669 3.500854 0.519615 0.789283 2.075603 -0.091501 3.568751 -11.007374 -1.327627 -5.403073 -0.274335 -25.553293 1.547252 3.382450 -61.563183 2.537911 9.811889 9.252079 -16.402539 14.837616 -7.411535 -11.229440 -9.858203 26.710495 3.636549 0.099636 54.565878 5.691054 13.519274 -18.506756 36.391127 -3.140340 5.468553 15.383312 -16.380203 
325.583466 -320.235107 87.369179 -133.009740 -1.275548 86.916008 -2.677048 -6.434353 -22.242335 -6.643833 4.446561 29.371464 5.783281 10.619242 -17.335620 nan nan nan 1.925457 -0.775970 11.261927 2.351933 3.771299 45.898171 1.029000 -3.810347 -20.568545 nan nan nan -2.128622 8.790120 16.225152 2.295945 -2.090330 3.548278 0.400988 0.557556 2.048440 -0.055720 3.807229 -11.230511 -1.422541 -5.234897 -0.185999 -25.387808 1.577489 3.229858 -61.916487 2.163930 9.894198 9.278679 -16.764422 14.636783 -7.183214 -11.153151 -9.975216 26.689980 3.376806 -0.200559 54.793452 5.469367 13.696310 -17.838799 36.144332 -2.485631 5.800786 14.970944 -16.121662 
324.566772 -319.260101 87.662140 -132.633441 -1.337797 86.635776 -3.253652 -6.161262 -20.561470 -6.282801 3.777785 28.791513 5.806665 10.398014 -17.622663 nan nan nan 1.913510 -0.549115 9.935434 2.216072 3.307810 47.786619 1.214466 -3.969514 -20.515660 nan nan nan -2.299476 8.389880 16.596067 2.332040 -2.048991 3.261081 0.537805 0.200749 2.187308 0.027462 3.905312 -11.157665 -1.428035 -5.002718 -0.000972 -25.232210 1.439920 3.328018 -62.249704 1.678384 9.897687 9.373611 -17.044040 14.382219 -7.112201 -11.324993 -10.000306 26.774929 3.209160 -0.375391 54.945296 5.070305 13.730787 -17.437684 35.830913 -2.144023 6.656632 14.949048 -15.678984 
323.580994 -318.338715 87.990738 -132.386472 -1.307007 86.403152 -3.655598 -6.008415 -19.013618 -6.057366 2.999943 28.167480 5.764672 10.405582 -17.718366 nan nan nan 1.812546 -0.222175 8.432361 2.237650 2.773442 49.748103 1.388778 -3.978147 -20.331853 nan nan nan -2.394637 7.837105 16.868267 2.456330 -2.024855 3.444742 0.614325 0.090351 2.042464 -0.009260 4.022681 -11.199300 -1.478246 -4.805796 -0.028813 -25.309049 1.254111 3.227224 -62.426682 1.171073 10.058777 9.438079 -17.282343 14.154453 -7.222854 -11.564642 -9.914096 26.842386 3.220661 -0.348394 54.970897 4.672062 13.727156 -17.339139 35.488496 -2.067967 7.865818 15.240546 -15.349699 
322.618408 -317.400635 88.303345 -132.218047 -1.268515 86.342043 -4.035978 -5.979946 -17.501453 -5.935071 2.121332 27.265747 5.846303 10.926371 -17.928752 nan nan nan 1.592989 -0.066583 6.475809 2.293827 1.820999 52.395799 1.513822 -4.201580 -20.393076 nan nan nan -2.382196 7.372709 17.018430 2.466711 -1.902865 3.218748 0.643281 -0.104981 2.218168 0.032251 4.103698 -11.282270 -1.570547 -4.701159 0.015643 -25.225634 1.047933 3.137594 -62.647039 0.460899 10.365643 9.329531 -17.187820 13.801453 -6.895348 -12.023938 -10.334353 26.837432 2.988716 -0.441929 55.167150 4.285259 13.832908 -16.893879 35.104156 -1.754037 8.219740 15.413626 -15.362521 
321.584503 -316.484985 88.666924 -131.664298 -1.112462 85.994828 -4.623856 -6.018840 -15.514002 -5.472209 0.929645 26.265320 5.879990 11.463567 -18.163818 nan nan nan 1.461638 0.091571 5.142593 2.158797 0.769104 53.981978 1.679388 -4.569796 -20.154813 nan nan nan -1.968080 6.702489 17.510509 2.393002 -1.881340 2.978887 0.613202 -0.450980 2.325003 0.049369 4.056710 -11.287713 -1.656156 -4.550325 0.109586 -25.149835 0.751294 3.236623 -62.919813 -0.103327 10.557383 9.588360 -17.334529 13.486420 -6.932314 -12.595617 -10.576785 26.693830 2.811773 -0.576940 55.539925 3.765333 13.903194 -16.437773 34.742714 -1.402014 8.088421 15.474535 -15.405575 
